<?xml version="1.0" encoding="utf-8"?>
<svg version="1.1" xmlns="http://www.w3.org/2000/svg" xmlns:xlink="http://www.w3.org/1999/xlink" height="295.49275912777307" width="333.00814571369443">
  <g opacity="1">
    <g opacity="1">
      <path fill-opacity="0" stroke="rgb(168,168,168)" stroke-opacity="1" stroke-width="15" stroke-linecap="butt" stroke-linejoin="miter" opacity="1" fill-rule="evenodd" d="M102.2154258319257 38.068246408792746C110.06033626361446 33.67189912378075 224.14159022610775 35.11098545490005 229.47172263638143 38.068246408792746C234.80185504665513 41.02550736268544 297.7883102238584 140.19865928551422 297.7233697114357 149.25733411123116C297.65842919901286 158.3160089369481 237.75840313334592 252.4630082365099 229.47172263638143 256.98528289686215C221.1850421394169 261.50755755721445 109.55770028364911 261.0509485625757 102.2154258319257 256.98528289686215C94.8731513802023 252.9196172311486 35.34918398164655 158.3666431242639 35.28477837767905 149.25733411123116C35.22037277371155 140.14802509819842 94.37051540023691 42.464593693804744 102.2154258319257 38.068246408792746Z"/>
    </g>
    <g opacity="1">
      <path fill-opacity="0" stroke="rgb(168,168,168)" stroke-opacity="1" stroke-width="15" stroke-linecap="butt" stroke-linejoin="miter" opacity="1" fill-rule="evenodd" d="M293.3200869812818 150.91409706627437C293.2751362269747 159.33342805429663 111.15606375429986 259.072444570548 104.85743837660269 255.37978712738942C98.55881299890551 251.6871296842309 94.79256777300209 49.64384979622175 104.85743837660269 43.814818180089304C114.92230898020327 37.98578656395686 293.3650377355889 142.49476607825213 293.3200869812818 150.91409706627437Z"/>
    </g>
    <g>
      <text opacity="1" font-size="0" transform="translate(135.64189430584318, 111.57990949648786)">
        <tspan fill="rgb(62,93,202)" font-size="54" font-family="Avenir Next" font-weight="400" style="white-space: pre;text-transform: none" x="0" y="54">#1</tspan>
      </text>
    </g>
  </g>
</svg>