<?xml version="1.0" encoding="utf-8"?>
<svg version="1.1" xmlns="http://www.w3.org/2000/svg" xmlns:xlink="http://www.w3.org/1999/xlink" height="366.06221076994984" width="403.5775973558713">
  <g>
    <g opacity="1">
      <path fill-opacity="0" stroke="rgb(247,95,95)" stroke-opacity="1" stroke-width="30" stroke-linecap="butt" stroke-linejoin="miter" opacity="1" fill-rule="evenodd" d="M137.50015165301411 73.35297222988115C145.34506208470287 68.95662494486915 259.42631604719617 70.39571127598846 264.75644845746984 73.35297222988115C270.0865808677436 76.31023318377385 333.07303604494683 175.48338510660264 333.00809553252407 184.54205993231955C332.94315502010124 193.6007347580365 273.04312895443434 287.7477340575983 264.75644845746984 292.2700087179506C256.46976796050535 296.7922833783029 144.8424261047375 296.3356743836641 137.50015165301411 292.2700087179506C130.15787720129072 288.204343052237 70.63390980273496 193.65136894535232 70.56950419876746 184.54205993231955C70.50509859479996 175.43275091928683 129.65524122132533 77.74931951489314 137.50015165301411 73.35297222988115Z"/>
    </g>
    <g opacity="1">
      <path fill-opacity="0" stroke="rgb(247,95,95)" stroke-opacity="1" stroke-width="30" stroke-linecap="butt" stroke-linejoin="miter" opacity="1" fill-rule="evenodd" d="M328.60481280237025 186.19882288736278C328.5598620480631 194.61815387538505 146.44078957538827 294.35717039163643 140.1421641976911 290.6645129484778C133.84353881999394 286.9718555053193 130.07729359409052 84.92857561731016 140.1421641976911 79.09954400117772C150.20703480129168 73.27051238504527 328.64976355667727 177.77949189934054 328.60481280237025 186.19882288736278Z"/>
    </g>
  </g>
</svg>